<?xml version="1.0" encoding="UTF-8" standalone="no"?>
<!-- Created with Inkscape (http://www.inkscape.org/) -->

<svg
   xmlns:dc="http://purl.org/dc/elements/1.1/"
   xmlns:cc="http://creativecommons.org/ns#"
   xmlns:rdf="http://www.w3.org/1999/02/22-rdf-syntax-ns#"
   xmlns:svg="http://www.w3.org/2000/svg"
   xmlns="http://www.w3.org/2000/svg"
   xmlns:sodipodi="http://sodipodi.sourceforge.net/DTD/sodipodi-0.dtd"
   xmlns:inkscape="http://www.inkscape.org/namespaces/inkscape"
   width="50mm"
   height="50mm"
   viewBox="0 0 177.16535 177.16535"
   id="svg3378"
   version="1.1"
   inkscape:version="0.91 r13725"
   sodipodi:docname="GanymedeSymbol.svg">
  <defs
     id="defs3380" />
  <sodipodi:namedview
     id="base"
     pagecolor="#ffffff"
     bordercolor="#666666"
     borderopacity="1.0"
     inkscape:pageopacity="0.0"
     inkscape:pageshadow="2"
     inkscape:zoom="2.1563218"
     inkscape:cx="122.85714"
     inkscape:cy="70"
     inkscape:document-units="px"
     inkscape:current-layer="layer1"
     showgrid="false"
     inkscape:window-width="1366"
     inkscape:window-height="705"
     inkscape:window-x="-4"
     inkscape:window-y="-4"
     inkscape:window-maximized="1" />
  <metadata
     id="metadata3383">
    <rdf:RDF>
      <cc:Work
         rdf:about="">
        <dc:format>image/svg+xml</dc:format>
        <dc:type
           rdf:resource="http://purl.org/dc/dcmitype/StillImage" />
        <dc:title></dc:title>
      </cc:Work>
    </rdf:RDF>
  </metadata>
  <g
     inkscape:label="Layer 1"
     inkscape:groupmode="layer"
     id="layer1"
     transform="translate(0,-875.19685)">
    <path
       style="fill:#000000"
       d="m 47.648185,1021.2668 0,-16.2127 -16.170174,0 c -12.413467,0 -16.170174,-1.0273 -16.170174,-4.4217 0,-3.39436 3.756707,-4.42161 16.170174,-4.42161 l 16.170174,0 -0.001,-55.27051 -0.001,-55.27052 59.024272,0.52373 59.02427,0.52372 0.51241,20.84982 c 0.44257,18.00777 -0.18169,20.8495 -4.57972,20.84754 -4.19917,-0.002 -5.03365,-2.60509 -4.75861,-14.84492 0.18343,-8.16345 -0.17114,-15.30726 -0.78793,-15.87513 -1.5909,-1.46472 -52.94892,-2.96005 -78.29728,-2.2797 l -21.31523,0.57211 0,50.11193 0,50.11193 16.170175,0 c 12.413466,0 16.170174,1.02725 16.170174,4.42161 0,3.3944 -3.756708,4.4217 -16.170174,4.4217 l -16.170175,0 0,16.2127 c 0,12.4461 -1.024556,16.2126 -4.410047,16.2126 -3.385491,0 -4.410048,-3.7665 -4.410048,-16.2126 z"
       id="path3561"
       inkscape:connector-curvature="0" />
  </g>
</svg>
